<svg width="221" height="168" viewBox="0 0 221 148" fill="none" xmlns="http://www.w3.org/2000/svg">
<path opacity="0.1" d="M40.9017 71.3987C44.3442 80.5756 42.3959 89.7308 39.7268 98.539C37.0577 107.347 33.6657 116.13 34.2511 125.307C34.632 131.207 37.2453 137.785 45.3717 141.92C53.1934 145.898 63.9151 146.53 73.6121 146.558C80.9106 146.578 88.4695 146.329 94.3478 144.213C98.4317 142.744 101.401 140.477 105.178 138.772C118.321 132.834 138.609 134.677 155.775 138.607C163.826 140.455 171.73 142.701 179.987 143.96C188.244 145.219 197.158 145.397 204.031 143.174C210.83 140.97 214.771 136.695 216.893 132.233C221.207 123.173 219.079 113.071 216.093 103.295C209.439 81.6566 198.586 60.225 187.764 38.8705C183.758 30.963 179.731 23.0206 173.812 15.3991C170.53 11.1669 166.394 6.85601 159.828 4.11618C151.489 0.638921 139.946 0.531505 132.919 3.8657C121.151 9.45307 123.258 22.1597 109.867 26.4773C102.502 28.8566 92.6301 27.8026 83.9539 25.8898C65.3453 21.7918 47.1002 13.8819 28.3664 14.8793C15.4989 15.5631 4.69591 20.9249 1.67017 28.1229C-1.50191 35.6661 3.64488 45.3685 16.4023 49.7316C29.535 54.2304 37.8635 63.2962 40.9017 71.3987Z" fill="#234B90"/>
<path d="M127.25 81.7264C127.184 81.7264 127.12 81.6418 127.073 81.4911C127.026 81.3405 127 81.1362 127 80.9231V53.1194C127 52.9063 127.026 52.702 127.073 52.5514C127.12 52.4007 127.184 52.3161 127.25 52.3161C127.316 52.3161 127.38 52.4007 127.427 52.5514C127.474 52.702 127.5 52.9063 127.5 53.1194V80.9231C127.5 81.1362 127.474 81.3405 127.427 81.4911C127.38 81.6418 127.316 81.7264 127.25 81.7264Z" fill="#3F3D56"/>
<path d="M162.25 120.608C162.184 120.608 162.12 120.516 162.073 120.353C162.026 120.189 162 119.968 162 119.737V89.5765C162 89.3454 162.026 89.1238 162.073 88.9604C162.12 88.797 162.184 88.7052 162.25 88.7052C162.316 88.7052 162.38 88.797 162.427 88.9604C162.474 89.1238 162.5 89.3454 162.5 89.5765V119.737C162.5 119.968 162.474 120.189 162.427 120.353C162.38 120.516 162.316 120.608 162.25 120.608Z" fill="#3F3D56"/>
<path d="M194.306 20.9119H41.6936C41.112 20.9125 40.5544 21.1437 40.1432 21.5547C39.732 21.9658 39.5006 22.5231 39.5 23.1044V135.862C39.5006 136.443 39.732 137.001 40.1432 137.412C40.5544 137.823 41.112 138.054 41.6936 138.055H194.306C194.888 138.054 195.446 137.823 195.857 137.412C196.268 137.001 196.499 136.443 196.5 135.862V23.1044C196.499 22.5231 196.268 21.9658 195.857 21.5547C195.446 21.1437 194.888 20.9125 194.306 20.9119ZM195.873 135.862C195.873 136.278 195.708 136.676 195.414 136.969C195.12 137.263 194.722 137.428 194.306 137.428H41.6936C41.2781 137.428 40.8797 137.263 40.5859 136.969C40.292 136.676 40.1269 136.278 40.1267 135.862V23.1044C40.1269 22.6891 40.292 22.2908 40.5859 21.9972C40.8797 21.7035 41.2781 21.5385 41.6936 21.5383H194.306C194.722 21.5385 195.12 21.7035 195.414 21.9972C195.708 22.2908 195.873 22.6891 195.873 23.1044V135.862Z" fill="#3F3D56"/>
<path d="M196.5 29.386H40V29.8845H196.5V29.386Z" fill="#3F3D56"/>
<path d="M44.75 26.8936C45.7165 26.8936 46.5 26.2241 46.5 25.3982C46.5 24.5723 45.7165 23.9027 44.75 23.9027C43.7835 23.9027 43 24.5723 43 25.3982C43 26.2241 43.7835 26.8936 44.75 26.8936Z" fill="#3F3D56"/>
<path d="M50.5 26.8936C51.6046 26.8936 52.5 26.2241 52.5 25.3982C52.5 24.5723 51.6046 23.9027 50.5 23.9027C49.3954 23.9027 48.5 24.5723 48.5 25.3982C48.5 26.2241 49.3954 26.8936 50.5 26.8936Z" fill="#3F3D56"/>
<path d="M55.75 26.8936C56.7165 26.8936 57.5 26.2241 57.5 25.3982C57.5 24.5723 56.7165 23.9027 55.75 23.9027C54.7835 23.9027 54 24.5723 54 25.3982C54 26.2241 54.7835 26.8936 55.75 26.8936Z" fill="#3F3D56"/>
<path d="M116 48.5775C116 48.6436 115.963 48.707 115.896 48.7537C115.829 48.8005 115.739 48.8267 115.645 48.8267H103.355C103.261 48.8267 103.171 48.8005 103.104 48.7537C103.037 48.707 103 48.6436 103 48.5775C103 48.5114 103.037 48.448 103.104 48.4013C103.171 48.3545 103.261 48.3283 103.355 48.3283H115.645C115.739 48.3283 115.829 48.3545 115.896 48.4013C115.963 48.448 116 48.5114 116 48.5775Z" fill="#3F3D56"/>
<path d="M86 48.5775C86 48.6436 85.954 48.707 85.872 48.7537C85.79 48.8005 85.6789 48.8267 85.563 48.8267H70.437C70.3211 48.8267 70.21 48.8005 70.128 48.7537C70.046 48.707 70 48.6436 70 48.5775C70 48.5114 70.046 48.448 70.128 48.4013C70.21 48.3545 70.3211 48.3283 70.437 48.3283H85.563C85.6789 48.3283 85.79 48.3545 85.872 48.4013C85.954 48.448 86 48.5114 86 48.5775Z" fill="#3F3D56"/>
<path d="M102.111 53.3115H85.389C84.7237 53.3109 84.1025 53.0989 83.6589 52.7448C83.2182 52.3932 83.0007 51.9437 83 51.506V44.652C83.0007 44.2144 83.2182 43.7649 83.6589 43.4132C84.1025 43.0592 84.7236 42.8471 85.3888 42.8465H102.111C102.776 42.8471 103.398 43.0592 103.841 43.4132C104.282 43.765 104.499 44.2146 104.5 44.6523V51.5057C104.499 51.9435 104.282 52.3931 103.841 52.7448C103.397 53.0989 102.776 53.3109 102.111 53.3115Z" fill="#CCCCCC" stroke="#3F3D56"/>
<path d="M136.047 53.3115H118.953C118.268 53.3109 117.629 53.0973 117.173 52.7415C116.721 52.3881 116.501 51.9392 116.5 51.506V44.652C116.501 44.2189 116.721 43.7699 117.173 43.4165C117.629 43.0608 118.268 42.8471 118.953 42.8465H136.047C136.732 42.8471 137.371 43.0608 137.827 43.4165C138.279 43.77 138.499 44.2191 138.5 44.6523V51.5057C138.499 51.939 138.279 52.388 137.827 52.7415C137.371 53.0973 136.732 53.3109 136.047 53.3115Z" fill="#CCCCCC" stroke="#3F3D56"/>
<path d="M53 31.7592L53 135.681C53 136.179 52.9737 136.656 52.9268 137.007C52.8799 137.359 52.8163 137.556 52.75 137.556C52.6837 137.556 52.6201 137.359 52.5732 137.007C52.5263 136.656 52.5 136.179 52.5 135.681L52.5 31.7592C52.5 31.262 52.5263 30.7852 52.5732 30.4336C52.6201 30.082 52.6837 29.8845 52.75 29.8845C52.8163 29.8845 52.8799 30.082 52.9268 30.4336C52.9737 30.7852 53 31.262 53 31.7592Z" fill="#3F3D56"/>
<path d="M193.766 102.663H42.2336C41.5086 102.663 40.8133 102.636 40.3006 102.59C39.788 102.543 39.5 102.479 39.5 102.413C39.5 102.347 39.788 102.284 40.3006 102.237C40.8133 102.19 41.5086 102.164 42.2336 102.164H193.766C194.491 102.164 195.187 102.19 195.699 102.237C196.212 102.284 196.5 102.347 196.5 102.413C196.5 102.479 196.212 102.543 195.699 102.59C195.187 102.636 194.491 102.663 193.766 102.663Z" fill="#3F3D56"/>
<path d="M194.266 67.2705H42.7336C42.0086 67.2705 41.3133 67.2443 40.8006 67.1975C40.288 67.1508 40 67.0874 40 67.0213C40 66.9552 40.288 66.8918 40.8006 66.845C41.3133 66.7983 42.0086 66.772 42.7336 66.772H194.266C194.991 66.772 195.687 66.7983 196.199 66.845C196.712 66.8918 197 66.9552 197 67.0213C197 67.0874 196.712 67.1508 196.199 67.1975C195.687 67.2443 194.991 67.2705 194.266 67.2705Z" fill="#3F3D56"/>
<rect width="6.8429" height="6.8429" transform="matrix(0.706725 -0.707488 0.706725 0.707488 122.381 85.1109)" fill="#3F3D56"/>
<path d="M70.5 48.3283C70.5 49.2166 69.8811 49.8222 69.25 49.8222C68.6189 49.8222 68 49.2166 68 48.3283C68 47.4399 68.6189 46.8344 69.25 46.8344C69.8811 46.8344 70.5 47.4399 70.5 48.3283Z" fill="#CCCCCC" stroke="#3F3D56"/>
<path d="M130.273 85.2729C130.273 85.203 130.339 85.1362 130.457 85.0872C130.575 85.0382 130.734 85.0109 130.9 85.0114L152.575 85.0761C152.741 85.0766 152.9 85.1048 153.018 85.1546C153.135 85.2043 153.201 85.2715 153.2 85.3413C153.2 85.4112 153.134 85.4779 153.016 85.527C152.899 85.576 152.739 85.6033 152.573 85.6028L130.898 85.5381C130.732 85.5376 130.573 85.5093 130.456 85.4596C130.339 85.4099 130.273 85.3427 130.273 85.2729Z" fill="#3F3D56"/>
<path d="M161.291 121.087C161.293 120.345 161.896 119.746 162.636 119.748C163.376 119.75 163.975 120.353 163.973 121.095C163.971 121.838 163.368 122.437 162.628 122.435C161.888 122.432 161.288 121.83 161.291 121.087Z" fill="#234B90" stroke="#3F3D56"/>
<path d="M172.6 90.6991H152.9C152.529 90.6986 152.173 90.5491 151.91 90.2832C151.648 90.0172 151.5 89.6567 151.5 89.2807V81.1509C151.5 80.7749 151.648 80.4143 151.91 80.1484C152.173 79.8825 152.529 79.7329 152.9 79.7325H172.6C172.971 79.7329 173.327 79.8825 173.59 80.1484C173.852 80.4143 174 80.7749 174 81.1509V89.2807C174 89.6567 173.852 90.0172 173.59 90.2832C173.327 90.5491 172.971 90.6986 172.6 90.6991Z" fill="#234B90"/>
</svg>
